mtllib materials.mtl
v 0.01247439 -0.006771564 -0.1027485
v 0.007874787 -0.003688693 -0.1033591
v -0.07548478 -0.01439959 0.4705193
v -0.07088515 -0.01748258 0.4711299
v 0.00593999 0.001531959 -0.1035426
v -0.07741982 -0.009178758 0.4703357
v 0.007408977 0.006896496 -0.1032293
v -0.07595086 -0.00381434 0.4706492
v 0.0117203 0.01035571 -0.1025383
v -0.07163894 -0.0003551245 0.47134
v 0.01722807 0.01058829 -0.101734
v -0.06613144 -0.0001226664 0.4721444
v 0.02182797 0.007505298 -0.1011234
v -0.06153181 -0.003205538 0.472755
v 0.0237627 0.002284408 -0.1009397
v -0.05959678 -0.008426309 0.4729386
v 0.02229348 -0.003079891 -0.1012534
v -0.06106573 -0.01379085 0.4726251
v 0.01798213 -0.006539226 -0.1019441
v -0.06537762 -0.01724994 0.4719343
v 0.01486859 0.01028502 -0.08549047
v 0.01249173 0.001605153 -0.0859977
v 0.005049169 0.006593347 -0.08698571
v 0.009361058 0.01005244 -0.0862948
v 0.01377934 -0.002930284 -0.1440087
v 0.005515218 -0.003991961 -0.08711556
v 0.01011488 -0.007074952 -0.08650497
v 0.01837894 -0.006013155 -0.1433981
v 0.01671091 0.005503654 -0.1724822
v 0.02388644 -0.005780578 -0.1425938
v 0.01562238 -0.006842375 -0.08570063
v 0.01993424 -0.003383279 -0.08500975
v 0.02819803 -0.002321362 -0.141903
v 0.03380597 0.001907468 -0.1693393
v 0.01184428 0.002290606 -0.1441923
v 0.003580213 0.001228809 -0.0872992
v 0.01331356 0.007655025 -0.1438788
v 0.01762515 0.01111424 -0.143188
v 0.02313265 0.01134682 -0.1423837
v 0.02773225 0.008263826 -0.1417732
v 0.01946819 0.007202029 -0.08487988
v 0.02966699 0.003043175 -0.1415894
v 0.02140322 0.001981258 -0.08469623
v 0.0532482 0.01034343 -0.3116169
v 0.03400344 0.03648674 -0.1693921
v 0.01577222 -0.03009135 -0.1732828
vn -0.5455453 -0.8327041 -0.0947855
vn -0.926664 -0.3484003 -0.1411066
vn -0.9538401 0.2689954 -0.1335315
vn -0.6166956 0.7836253 -0.07495359
vn -0.04396291 0.998958 0.01225854
vn 0.5455327 0.8327125 0.09478378
vn 0.9266654 0.3483966 0.1411066
vn 0.953833 -0.2690217 0.1335291
vn 0.6166949 -0.7836258 0.07495341
vn 0.04396306 -0.998958 -0.01225842
vn 0.143723 0.01846573 -0.9894457
vn -0.1437234 -0.01846712 0.9894456
vn -0.1437233 -0.01846601 0.9894457
vn -0.5455409 -0.8327072 -0.09478389
vn -0.5053173 -0.8118492 -0.2924982
vn 0.6166779 -0.7836396 0.07494896
vn 0.04397179 -0.9989576 -0.0122562
vn 0.07711836 -0.9654492 -0.248919
vn 0.6250435 -0.7805544 0.007447643
vn -0.926657 -0.3484193 -0.1411055
vn -0.9538325 0.269022 -0.133532
vn -0.9169852 -0.3468078 -0.197136
vn -0.6166763 0.7836405 -0.07495343
vn -0.04397741 0.9989574 0.01225522
vn -0.607525 0.7834101 -0.1310806
vn -0.01406828 0.9821329 -0.1876623
vn 0.5455474 0.8327028 0.0947843
vn 0.9266647 0.3483996 0.1411034
vn 0.5616046 0.8247346 -0.06643245
vn 0.9289773 0.3486446 0.1242914
vn 0.953841 -0.2689951 0.1335256
vn 0.9508491 -0.2693049 0.1528424
vn -0.1437231 -0.0184663 0.9894457
vn -0.8458177 0.4925186 -0.2049827
vn -0.8733154 0.4780955 0.0935147
vn 0.9908208 -0.00545177 0.1350723
vn 0.9291868 -0.004741706 0.3695802
vn -0.9670019 0.03118821 -0.2528533
vn -0.9974432 0.02479595 0.06702433
vn 0.8630587 -0.4972988 0.08845104
vn 0.8051443 -0.4941726 0.3279271
vn -0.1437234 -0.01846628 0.9894457
vn -0.953826 0.2690481 -0.1335262
vt -0.03133719 -0.07802618
vt -0.03172975 -0.07842144
vt 0.009422902 -0.1192927
vt 0.009815462 -0.1188974
vt -0.1088441 -0.005264122
vt -0.1093829 -0.005122582
vt -0.1241207 -0.0612189
vt -0.1235819 -0.06136045
vt -0.0787324 0.05554677
vt -0.07905134 0.05600352
vt -0.1266044 0.02279647
vt -0.1262854 0.02233974
vt -0.04808424 0.02395677
vt -0.04832806 0.02445763
vt -0.1004777 -0.0009277958
vt -0.1002338 -0.001428705
vt -0.01875481 -0.03459777
vt -0.01901514 -0.03410523
vt -0.0702929 -0.06120858
vt -0.07003257 -0.0617011
vt 0.0317279 -0.07842112
vt 0.03133533 -0.07802583
vt -0.009817869 -0.1188965
vt -0.009425314 -0.1192918
vt 0.109383 -0.005121709
vt 0.1088442 -0.00526328
vt 0.1235824 -0.06135948
vt 0.1241212 -0.06121792
vt 0.07904969 0.05600351
vt 0.07873075 0.05554678
vt 0.1262843 0.02234042
vt 0.1266032 0.02279717
vt 0.048328 0.02445753
vt 0.0480842 0.02395666
vt 0.1002338 -0.001428795
vt 0.1004776 -0.0009278945
vt 0.01901518 -0.0341052
vt 0.01875484 -0.03459773
vt 0.0700326 -0.06170108
vt 0.07029293 -0.06120857
vt -0.1010845 0.02409826
vt -0.1011888 0.02464548
vt -0.1015947 0.02502697
vt -0.1021474 0.02509698
vt -0.1026357 0.02482873
vt -0.102873 0.02432472
vt -0.1027688 0.02377751
vt -0.1023628 0.02339603
vt -0.1018101 0.02332604
vt -0.1013219 0.02359426
vt 0.1013219 0.02359425
vt 0.1018102 0.02332603
vt 0.1023629 0.023396
vt 0.1027688 0.02377747
vt 0.102873 0.02432474
vt 0.1026357 0.02482872
vt 0.1021474 0.02509695
vt 0.1015948 0.02502697
vt 0.1011888 0.0246455
vt 0.1010846 0.02409824
vt 0.1026357 0.02482874
vt 0.1019788 0.0242115
vt 0.1027688 0.02377749
vt 0.102873 0.02432474
vt -0.03464394 -0.07552638
vt -0.03056413 -0.07957826
vt -0.03017157 -0.07918298
vt -0.03425138 -0.07513112
vt -0.05630627 -0.05586585
vt -0.0541205 -0.05789738
vt -0.05367404 -0.05756421
vt 0.04438914 0.02575304
vt 0.04955915 0.02323639
vt 0.04980298 0.02373729
vt 0.04463296 0.02625392
vt 0.01512326 -0.03267713
vt 0.02020684 -0.03536408
vt 0.02046715 -0.03487157
vt 0.01538357 -0.03218461
vt -0.008663186 -0.02032306
vt -0.008367611 -0.01985086
vt -0.01048234 -0.01778782
vt 0.03605068 0.0310728
vt 0.03820043 0.02904626
vt 0.03843849 0.02954991
vt -0.1083387 -0.001153377
vt -0.1097996 -0.006714705
vt -0.1092608 -0.00685624
vt -0.1077999 -0.001294915
vt -0.07568153 0.05835533
vt -0.08039589 0.05506331
vt -0.08007695 0.05460657
vt -0.07536259 0.05789858
vt -0.1076873 -0.000472985
vt -0.1081275 -0.003327705
vt -0.1075852 -0.003455306
vt -0.04463333 0.02625359
vt -0.04980334 0.02373694
vt -0.04955951 0.02323604
vt -0.04438951 0.02575271
vt -0.0153839 -0.03218407
vt -0.02046749 -0.03487102
vt -0.02020717 -0.03536354
vt -0.01512359 -0.03267658
vt -0.0467895 0.0240539
vt -0.04971655 0.02347336
vt -0.04946868 0.02297447
vt -0.03678507 -0.03863389
vt -0.03656819 -0.03914703
vt -0.03365542 -0.03849868
vt 0.03425227 -0.0751313
vt 0.03017248 -0.07918321
vt 0.03056504 -0.07957847
vt 0.03464483 -0.07552657
vt 0.1078002 -0.001290337
vt 0.1092613 -0.006851611
vt 0.1098001 -0.006710052
vt 0.108339 -0.001148769
vt 0.01303144 -0.08430094
vt 0.01100061 -0.08636191
vt 0.01131567 -0.08682134
vt 0.1069704 0.0021523
vt 0.1078604 -0.0005109184
vt 0.1083979 -0.000364494
vt 0.07536356 0.05789942
vt 0.08007789 0.05460735
vt 0.08039685 0.0550641
vt 0.07568251 0.05835616
vt 0.07696342 0.05627432
vt 0.07728863 0.05672663
vt 0.074921 0.0582363
vt 0.1026357 0.02482872
vt 0.1021474 0.02509693
vt 0.1015947 0.02502696
vt 0.1011888 0.02464548
vt 0.1010845 0.02409823
vt 0.1013219 0.02359424
vt 0.1019788 0.02421148
vt -0.05572997 0.05531279
vt -0.06926984 0.04988238
vt -0.06738161 0.04686246
vt -0.0383829 0.06570791
vt -0.03976633 0.0689899
vt -0.04151208 0.06556225
vt 0.08987464 0.05332845
vt 0.09227399 0.05581859
vt 0.08014335 0.06392198
vt 0.1034871 0.03045859
vt 0.1038307 0.03428982
vt 0.1010291 0.03226274
vt -0.09556787 0.04361495
vt -0.09285985 0.04130153
vt -0.08642359 0.0547303
vt -0.06926589 0.07527231
vt -0.06547676 0.07460974
vt -0.06727018 0.0776869
vt 0.04491292 0.06206056
vt 0.05546006 0.05154793
vt 0.05730168 0.05475033
vt 0.07645486 0.03866909
vt 0.07429833 0.0356697
vt 0.07812758 0.03603493
vt 0.1019788 0.0242115
vt 0.1013219 0.02359425
vt 0.1018101 0.02332603
vt 0.1023628 0.02339601
vt 0.1027688 0.02377748
vt -0.07567955 0.05835555
vt -0.07536061 0.05789879
vt -0.07316287 0.05977313
o group882368150
g mesh882368150
usemtl mat20
f 4/4/1 3/3/1 2/2/1 1/1/1
f 3/8/2 6/7/2 5/6/2 2/5/2
f 6/12/3 8/11/3 7/10/3 5/9/3
f 8/16/4 10/15/4 9/14/4 7/13/4
f 10/20/5 12/19/5 11/18/5 9/17/5
f 12/24/6 14/23/6 13/22/6 11/21/6
f 14/28/7 16/27/7 15/26/7 13/25/7
f 16/32/8 18/31/8 17/30/8 15/29/8
f 18/36/9 20/35/9 19/34/9 17/33/9
f 20/40/10 4/39/10 1/38/10 19/37/10
f 1/50/11 2/49/11 5/48/11 7/47/11 9/46/11 11/45/11 13/44/11 15/43/11 17/42/11 19/41/11
f 20/60/12 18/59/12 16/58/12 14/57/12 12/56/12 10/55/12 8/54/12 6/53/12 3/52/12 4/51/12
f 24/64/13 23/63/13 22/62/13 21/61/13
f 28/68/14 27/67/14 26/66/14 25/65/14
f 28/71/15 25/70/15 29/69/15
f 33/75/16 32/74/16 31/73/16 30/72/16
f 30/79/17 31/78/17 27/77/17 28/76/17
f 34/82/18 30/81/18 28/80/18
f 33/85/19 30/84/19 34/83/19
f 25/89/20 26/88/20 36/87/20 35/86/20
f 35/93/21 36/92/21 23/91/21 37/90/21
f 25/96/22 35/95/22 29/94/22
f 37/100/23 23/99/23 24/98/23 38/97/23
f 38/104/24 24/103/24 21/102/24 39/101/24
f 37/107/25 38/106/25 29/105/25
f 29/110/26 38/109/26 39/108/26
f 39/114/27 21/113/27 41/112/27 40/111/27
f 40/118/28 41/117/28 43/116/28 42/115/28
f 39/121/29 40/120/29 34/119/29
f 40/124/30 42/123/30 34/122/30
f 42/128/31 43/127/31 32/126/31 33/125/31
f 34/131/32 42/130/32 33/129/32
f 22/138/33 27/137/33 31/136/33 32/135/33 43/134/33 41/133/33 21/132/33
f 23/167/42 36/166/42 26/165/42 27/164/42 22/163/42
f 29/170/43 35/169/43 37/168/43
usemtl mat16
f 29/141/34 45/140/34 44/139/34
f 39/144/35 45/143/35 29/142/35
f 44/147/36 45/146/36 34/145/36
f 34/150/37 45/149/37 39/148/37
f 44/153/38 46/152/38 29/151/38
f 29/156/39 46/155/39 28/154/39
f 34/159/40 46/158/40 44/157/40
f 28/162/41 46/161/41 34/160/41
